<svg id="frown-svg" width="32" height="33" viewBox="0 0 32 33" xmlns="http://www.w3.org/2000/svg">
    <circle cx="16" cy="16" r="15" stroke="#303233" stroke-width="2" />
    <path d="M8.57004 25.3103C8.79972 25.4429 9.07267 25.4789 9.32884 25.4102C9.58501 25.3416 9.80343 25.174 9.93604 24.9443C10.5503 23.8797 11.4341 22.9956 12.4987 22.3812C13.5633 21.7667 14.7709 21.4436 16 21.4443C18.59 21.4443 20.852 22.8503 22.064 24.9443C22.1976 25.1721 22.4158 25.3379 22.6711 25.4054C22.9264 25.4729 23.1981 25.4366 23.4267 25.3046C23.6554 25.1726 23.8226 24.9554 23.8918 24.7006C23.961 24.4458 23.9266 24.1739 23.796 23.9443C23.0063 22.5756 21.8699 21.4391 20.5014 20.6491C19.1328 19.8592 17.5803 19.4436 16 19.4443C14.4199 19.444 12.8675 19.8597 11.499 20.6497C10.1305 21.4396 8.99411 22.5759 8.20404 23.9443C8.07144 24.174 8.0355 24.447 8.10414 24.7031C8.17278 24.9593 8.34037 25.1777 8.57004 25.3103ZM14 13.4443C14 15.1003 13.104 16.4443 12 16.4443C10.896 16.4443 10 15.1003 10 13.4443C10 11.7883 10.896 10.4443 12 10.4443C13.104 10.4443 14 11.7883 14 13.4443ZM22 13.4443C22 15.1003 21.104 16.4443 20 16.4443C18.896 16.4443 18 15.1003 18 13.4443C18 11.7883 18.896 10.4443 20 10.4443C21.104 10.4443 22 11.7883 22 13.4443Z" fill="#303233"/>
</svg>
