<svg width="82" height="100" viewBox="0 0 82 100" fill="none" xmlns="http://www.w3.org/2000/svg">
<path d="M76.6143 0V2.67898H79.2932V5.35796H81.9722V0H76.6143Z" fill="white"/>
<path d="M57.2436 0H48.9414V2.67898H57.2436V0Z" fill="white"/>
<path d="M43.4076 0H35.1055V2.67898H43.4076V0Z" fill="white"/>
<path d="M71.0785 0H62.7764V2.67898H71.0785V0Z" fill="white"/>
<path d="M26.8919 2.67898H29.5708V0H24.2129V5.35796H26.8919V2.67898Z" fill="white"/>
<path d="M71.0785 67.738H62.7764V70.417H71.0785V67.738Z" fill="white"/>
<path d="M79.2932 67.738H76.6143V70.417H81.9722V65.059H79.2932V67.738Z" fill="white"/>
<path d="M81.971 24.3533H79.292V32.4947H81.971V24.3533Z" fill="white"/>
<path d="M81.971 10.7856H79.292V18.927H81.971V10.7856Z" fill="white"/>
<path d="M81.971 37.9223H79.292V46.0637H81.971V37.9223Z" fill="white"/>
<path d="M81.971 51.49H79.292V59.6314H81.971V51.49Z" fill="white"/>
<path d="M2.67765 71.8449V32.6996H13.9856C19.2069 32.6996 23.4558 28.4521 23.4558 23.2294V11.9375H49.9281C52.7679 11.9375 55.0785 14.2482 55.0785 17.0892V65.059H57.7575V17.0879C57.7575 12.7707 54.2453 9.25722 49.9281 9.25722H23.0151C21.2979 9.25722 19.6825 9.92562 18.4675 11.1392L1.88466 27.7114C0.668402 28.9263 0 30.543 0 32.2603V71.8435C0 76.1607 3.51214 79.6729 7.82932 79.6729H36.3765V76.9939H7.82932C4.9896 76.9939 2.67898 74.6833 2.67898 71.8435L2.67765 71.8449ZM20.3616 13.0359C20.4902 12.9073 20.6348 12.8015 20.7782 12.6943V23.2294C20.7782 26.9733 17.7322 30.0206 13.987 30.0206H3.43847C3.54563 29.8787 3.65012 29.7353 3.77737 29.6081L20.3602 13.0359H20.3616Z" fill="white"/>
<path d="M69.7414 77.8458L45.6105 64.9425C44.2736 64.2285 42.689 64.3424 41.4701 65.2385C40.2512 66.1346 39.6685 67.6148 39.9511 69.1003L45.0586 95.9838C45.3854 97.7024 46.7745 98.9682 48.5172 99.1316C48.6431 99.1437 48.769 99.149 48.8949 99.149C50.4862 99.149 51.9074 98.1953 52.5035 96.6857L56.7242 85.9939L68.1903 85.1594C69.9343 85.0321 71.3514 83.7971 71.7144 82.0866C72.0774 80.3761 71.2858 78.6709 69.7427 77.8458H69.7414ZM69.0931 81.5294C69.0489 81.7383 68.8386 82.4255 67.9947 82.4871L54.8516 83.4449L50.012 95.7025C49.7026 96.4875 48.9833 96.4861 48.7703 96.4647C48.5573 96.4446 47.8501 96.3147 47.692 95.4842L42.5846 68.6006C42.452 67.9027 42.9141 67.5036 43.0587 67.3964C43.2034 67.2906 43.7258 66.9705 44.3487 67.304L68.4796 80.2073C69.2257 80.6065 69.1386 81.3191 69.0944 81.528L69.0931 81.5294Z" fill="white"/>
</svg>
