<svg width="98" height="63" viewBox="0 0 98 63" fill="none" xmlns="http://www.w3.org/2000/svg">
<path d="M9.5403 10.0206C10.3775 10.0206 11.0562 9.34188 11.0562 8.50468C11.0562 7.66748 10.3775 6.9888 9.5403 6.9888C8.7031 6.9888 8.02441 7.66748 8.02441 8.50468C8.02441 9.34188 8.7031 10.0206 9.5403 10.0206Z" fill="white"/>
<path d="M14.9281 10.0206C15.7647 10.0206 16.444 9.34241 16.444 8.50468C16.444 7.66696 15.7647 6.9888 14.9281 6.9888C14.0915 6.9888 13.4111 7.66696 13.4111 8.50468C13.4111 9.34241 14.0904 10.0206 14.9281 10.0206Z" fill="white"/>
<path d="M20.3167 10.0206C21.1539 10.0206 21.8325 9.34188 21.8325 8.50468C21.8325 7.66748 21.1539 6.9888 20.3167 6.9888C19.4795 6.9888 18.8008 7.66748 18.8008 8.50468C18.8008 9.34188 19.4795 10.0206 20.3167 10.0206Z" fill="white"/>
<path d="M95.6337 58.3915L97.2005 56.8246L87.6398 47.2639C89.9713 44.5712 91.393 41.0718 91.393 37.2389C91.393 29.4124 85.499 22.9477 77.9184 22.0191V6.47686C77.9184 2.90544 75.013 0 71.4416 0H6.47686C2.90544 0 0 2.90544 0 6.47686V55.7032C0 59.2746 2.90544 62.1801 6.47686 62.1801H71.4416C75.013 62.1801 77.9184 59.2746 77.9184 55.7032V52.4576C81.0156 52.0786 83.8257 50.7755 86.0719 48.8308L95.6326 58.3915H95.6337ZM89.1768 37.2389C89.1768 44.4781 83.2872 50.3688 76.0469 50.3688C68.8065 50.3688 62.917 44.4792 62.917 37.2389C62.917 29.9985 68.8065 24.109 76.0469 24.109C83.2872 24.109 89.1768 29.9985 89.1768 37.2389ZM6.47686 2.2162H71.4416C73.7908 2.2162 75.7022 4.12768 75.7022 6.47686V14.3721H2.21621V6.47686C2.21621 4.12768 4.12768 2.2162 6.47686 2.2162ZM71.4416 59.9639H6.47686C4.12768 59.9639 2.21621 58.0524 2.21621 55.7032V16.5883H75.7034V21.9105C67.4014 22.0967 60.7019 28.8938 60.7019 37.2389C60.7019 45.584 67.4014 52.3811 75.7034 52.5673V55.7043C75.7034 58.0535 73.7919 59.965 71.4427 59.965L71.4416 59.9639Z" fill="white"/>
<path d="M45.3364 28.8749H10.5819C9.16908 28.8749 8.02441 30.0207 8.02441 31.4324C8.02441 32.8442 9.16908 33.991 10.5819 33.991H45.3364C46.7493 33.991 47.8939 32.8453 47.8939 31.4324C47.8939 30.0196 46.7493 28.8749 45.3364 28.8749Z" fill="white"/>
<path d="M32.4729 40.3039H11.2782C9.86574 40.3039 8.7207 41.4489 8.7207 42.8614V42.8625C8.7207 44.275 9.86574 45.42 11.2782 45.42H32.4729C33.8854 45.42 35.0304 44.275 35.0304 42.8625V42.8614C35.0304 41.4489 33.8854 40.3039 32.4729 40.3039Z" fill="white"/>
</svg>
