<svg width="17" height="17" viewBox="0 0 17 17" fill="none" xmlns="http://www.w3.org/2000/svg">
<path fill-rule="evenodd" clip-rule="evenodd" d="M8.625 0.25C10.7799 0.25 12.8465 1.10602 14.3702 2.62976C15.894 4.15349 16.75 6.22012 16.75 8.375C16.75 10.5299 15.894 12.5965 14.3702 14.1202C12.8465 15.644 10.7799 16.5 8.625 16.5C6.47012 16.5 4.40349 15.644 2.87976 14.1202C1.35602 12.5965 0.5 10.5299 0.5 8.375C0.5 6.22012 1.35602 4.15349 2.87976 2.62976C4.40349 1.10602 6.47012 0.25 8.625 0.25ZM14.7425 5.25C13.9408 3.69126 12.5766 2.49552 10.9262 1.905C11.4812 2.955 11.8825 4.08 12.1175 5.25H14.7425ZM15.47 8.99375C15.49 8.78811 15.5 8.58161 15.5 8.375C15.4988 7.74067 15.4091 7.1096 15.2337 6.5H12.3062C12.3462 6.91375 12.375 7.33 12.375 7.75C12.3724 8.58982 12.2862 9.42729 12.1175 10.25H15.2337C15.3525 9.83875 15.4313 9.41875 15.4713 8.99375H15.47ZM11.0513 8.99375L11.0587 8.93C11.1014 8.53809 11.1235 8.14422 11.125 7.75C11.1166 7.33189 11.0849 6.91458 11.03 6.5H6.22C6.16465 6.91453 6.13293 7.33187 6.125 7.75C6.12805 8.59162 6.22575 9.43022 6.41625 10.25H10.8337C10.93 9.835 11.0025 9.41625 11.0513 8.99375ZM10.8112 5.25C10.5168 3.92794 9.98526 2.67014 9.2425 1.5375C9.0375 1.52 8.8325 1.5 8.625 1.5C8.49479 1.50064 8.36467 1.50689 8.235 1.51875L8.0075 1.5375L8 1.55C7.26116 2.67933 6.73226 3.93276 6.43875 5.25H10.8112ZM5.1325 5.25C5.37227 4.08081 5.77893 2.95217 6.34 1.89875C4.68248 2.48725 3.31183 3.68579 2.5075 5.25H5.1325ZM2.01625 6.5C1.84111 7.10966 1.75151 7.74069 1.75 8.375C1.75151 9.00931 1.84111 9.64034 2.01625 10.25H5.1325C4.96303 9.42741 4.87676 8.58986 4.875 7.75C4.875 7.33 4.90375 6.91375 4.94375 6.5H2.01625ZM5.45875 11.5H2.50875C2.98127 12.423 3.6559 13.2275 4.48242 13.8536C5.30894 14.4797 6.26606 14.9113 7.2825 15.1162C6.48248 14.0177 5.86652 12.7963 5.45875 11.5ZM8.625 14.805C9.4243 13.8164 10.0491 12.6987 10.4725 11.5H6.7775C7.20092 12.6987 7.82572 13.8164 8.625 14.805ZM11.7913 11.5C11.3835 12.7963 10.7675 14.0177 9.9675 15.1162C10.9839 14.9111 11.9409 14.4795 12.7674 13.8534C13.5939 13.2273 14.2686 12.4229 14.7412 11.5H11.7913Z" fill="white"/>
</svg>
