<svg id="neutral-svg" width="32" height="33" viewBox="0 0 32 33" xmlns="http://www.w3.org/2000/svg">
    <circle cx="16" cy="16" r="15" stroke="#303233" stroke-width="2" />
    <path d="M8 21.4443C8 21.1791 8.10536 20.9248 8.29289 20.7372C8.48043 20.5497 8.73478 20.4443 9 20.4443H23C23.2652 20.4443 23.5196 20.5497 23.7071 20.7372C23.8946 20.9248 24 21.1791 24 21.4443C24 21.7096 23.8946 21.9639 23.7071 22.1514C23.5196 22.339 23.2652 22.4443 23 22.4443H9C8.73478 22.4443 8.48043 22.339 8.29289 22.1514C8.10536 21.9639 8 21.7096 8 21.4443ZM8 13.4443C8 13.1791 8.10536 12.9248 8.29289 12.7372C8.48043 12.5497 8.73478 12.4443 9 12.4443H13C13.2652 12.4443 13.5196 12.5497 13.7071 12.7372C13.8946 12.9248 14 13.1791 14 13.4443C14 13.7096 13.8946 13.9639 13.7071 14.1514C13.5196 14.339 13.2652 14.4443 13 14.4443H9C8.73478 14.4443 8.48043 14.339 8.29289 14.1514C8.10536 13.9639 8 13.7096 8 13.4443ZM18 13.4443C18 13.1791 18.1054 12.9248 18.2929 12.7372C18.4804 12.5497 18.7348 12.4443 19 12.4443H23C23.2652 12.4443 23.5196 12.5497 23.7071 12.7372C23.8946 12.9248 24 13.1791 24 13.4443C24 13.7096 23.8946 13.9639 23.7071 14.1514C23.5196 14.339 23.2652 14.4443 23 14.4443H19C18.7348 14.4443 18.4804 14.339 18.2929 14.1514C18.1054 13.9639 18 13.7096 18 13.4443Z" fill="#303233"/>
</svg>
