<svg id="smiley-svg" width="32" height="33" viewBox="0 0 32 33" xmlns="http://www.w3.org/2000/svg">
    <circle cx="16" cy="16" r="15" stroke="#303233" stroke-width="2" />
<path d="M24.662 19.4443C24.8375 19.7484 24.9299 20.0933 24.9299 20.4443C24.9299 20.7954 24.8375 21.1403 24.662 21.4443C23.7845 22.9651 22.5219 24.2278 21.0013 25.1056C19.4807 25.9833 17.7557 26.445 16 26.4443C14.2446 26.4447 12.52 25.9828 10.9998 25.1051C9.47959 24.2273 8.21732 22.9648 7.33997 21.4443C7.16452 21.1404 7.07211 20.7957 7.07202 20.4448C7.07193 20.0939 7.16416 19.7492 7.33946 19.4452C7.51475 19.1412 7.76694 18.8887 8.07069 18.7131C8.37444 18.5374 8.71907 18.4447 9.06997 18.4443H22.93C23.281 18.4443 23.6259 18.5368 23.9299 18.7123C24.234 18.8878 24.4864 19.1403 24.662 19.4443ZM14 13.4443C14 15.1003 13.104 13.4443 12 13.4443C10.896 13.4443 9.99997 15.1003 9.99997 13.4443C9.99997 11.7883 10.896 10.4443 12 10.4443C13.104 10.4443 14 11.7883 14 13.4443ZM22 13.4443C22 15.1003 21.104 13.4443 20 13.4443C18.896 13.4443 18 15.1003 18 13.4443C18 11.7883 18.896 10.4443 20 10.4443C21.104 10.4443 22 11.7883 22 13.4443Z" fill="#303233"/>
</svg>
