<svg width="134" height="134" viewBox="0 0 134 134" fill="none" xmlns="http://www.w3.org/2000/svg">
    <circle cx="67" cy="67" r="67" fill="#E51B2C"/>
    <g transform="matrix(1, 0, 0, 1, -10.48424, -3.085765)">
      <g>
        <path fill-rule="evenodd" clip-rule="evenodd" d="M 111.558 37.446 C 114.398 40.195 114.454 44.707 111.684 47.525 L 52.51 103.104 C 50.713 105.222 46.361 106.968 42.868 103.534 C 39.375 100.1 40.718 95.677 41.584 95.102 L 101.4 37.571 C 104.171 34.753 108.718 34.697 111.558 37.446 Z" fill="white"></path>
        <path fill-rule="evenodd" clip-rule="evenodd" d="M 111.558 37.446 C 114.398 40.195 114.454 44.707 111.684 47.525 L 52.51 103.104 C 50.713 105.222 46.361 106.968 42.868 103.534 C 39.375 100.1 40.718 95.677 41.584 95.102 L 101.4 37.571 C 104.171 34.753 108.718 34.697 111.558 37.446 Z" fill="white" style="transform-box: fill-box; transform-origin: 50% 50%;" transform="matrix(0, 1, -1, 0, 0.000003, 0.000001)"></path>
      </g>
    </g>
</svg>
