<svg width="20" height="20" viewBox="0 0 20 20" fill="none" xmlns="http://www.w3.org/2000/svg">
<g clip-path="url(#clip0)">
<path d="M7.27143 3.45091C7.15411 3.16931 7.2868 2.84386 7.57614 2.74716C9.01303 2.26693 10.5647 2.22309 12.0332 2.62811C13.6797 3.08222 15.1268 4.07446 16.1438 5.44666C17.1608 6.81886 17.6891 8.49202 17.6446 10.1994C17.6 11.9068 16.9852 13.5501 15.898 14.8675C14.8109 16.1848 13.3141 17.1002 11.6461 17.4679C9.97819 17.8355 8.23519 17.6342 6.69497 16.896C5.15475 16.1579 3.90599 14.9253 3.14775 13.3949C2.4715 12.0299 2.22015 10.498 2.41905 8.99613C2.45911 8.69371 2.75347 8.50168 3.05221 8.56345C3.35095 8.62522 3.5406 8.91742 3.50424 9.2203C3.35304 10.4798 3.57097 11.7606 4.13766 12.9044C4.78636 14.2138 5.85472 15.2683 7.17243 15.8998C8.49014 16.5314 9.98135 16.7036 11.4083 16.389C12.8353 16.0745 14.1159 15.2913 15.046 14.1643C15.9761 13.0373 16.5021 11.6313 16.5402 10.1706C16.5783 8.70987 16.1263 7.27842 15.2562 6.10445C14.3862 4.93049 13.1481 4.08159 11.7395 3.69308C10.509 3.35368 9.21008 3.3827 8.00212 3.77011C7.71163 3.86327 7.38876 3.73251 7.27143 3.45091Z" fill="url(#paint0_angular)"/>
</g>
<defs>
<radialGradient id="paint0_angular" cx="0" cy="0" r="1" gradientUnits="userSpaceOnUse" gradientTransform="translate(10 10) rotate(-176.532) scale(9.1934)">
<stop offset="0.0215903" stop-color="#FFFFFF" stop-opacity="0"/>
<stop offset="0.166667" stop-color="#FFFFFF"/>
<stop offset="0.764875" stop-color="#FFFFFF"/>
</radialGradient>
<clipPath id="clip0">
<rect width="20" height="20" fill="white"/>
</clipPath>
</defs>
</svg>
