<svg width="50" height="50" viewBox="-10 0 36 36" fill="none" xmlns="http://www.w3.org/2000/svg">
<g clip-path="url(#clip0_786_3715)" id="surface1">
<path style=" stroke:none;fill-rule:nonzero;fill:rgb(82%,169%,17%);fill-opacity:1;" d="M 19.351562 22.527344 C 18.375 23.4375 17.40625 24.328125 16.445312 25.222656 C 15.566406 26.035156 14.691406 26.855469 13.804688 27.691406 C 12.421875 28.980469 11.046875 30.257812 9.671875 31.53125 C 9.410156 31.777344 9.144531 32.023438 8.875 32.289062 C 7.992188 33.113281 7.125 33.921875 6.246094 34.722656 C 6.042969 34.90625 5.828125 35.085938 5.589844 35.21875 C 5.109375 35.492188 4.8125 35.324219 4.828125 34.785156 C 4.839844 34.429688 4.894531 34.070312 4.976562 33.722656 C 5.304688 32.3125 5.652344 30.902344 5.992188 29.492188 C 6.183594 28.707031 6.378906 27.925781 6.574219 27.117188 C 6.929688 25.621094 7.328125 24.160156 7.628906 22.679688 C 7.875 21.449219 7.121094 19.980469 6.011719 19.335938 C 5.285156 18.914062 4.550781 18.503906 3.820312 18.085938 C 3.332031 17.808594 2.953125 17.4375 2.828125 16.875 C 2.671875 16.183594 2.949219 15.636719 3.441406 15.175781 C 4.585938 14.097656 5.738281 13.03125 6.890625 11.960938 C 7.308594 11.570312 7.726562 11.179688 8.15625 10.769531 C 9.324219 9.679688 10.484375 8.613281 11.640625 7.539062 C 12.558594 6.6875 13.472656 5.832031 14.394531 4.960938 C 15.292969 4.121094 16.179688 3.296875 17.074219 2.484375 C 17.316406 2.265625 17.582031 2.054688 17.871094 1.90625 C 18.214844 1.726562 18.46875 1.871094 18.492188 2.257812 C 18.511719 2.535156 18.476562 2.828125 18.410156 3.101562 C 17.542969 6.753906 16.667969 10.40625 15.789062 14.058594 C 15.410156 15.632812 16.054688 17.125 17.476562 17.9375 C 18.152344 18.324219 18.832031 18.699219 19.507812 19.089844 C 20.742188 19.800781 20.898438 21.003906 19.890625 22.003906 C 19.71875 22.179688 19.539062 22.34375 19.351562 22.527344 Z M 19.351562 22.527344 "/>
</g>
<defs>
<clipPath id="clip0_786_3715">
<rect width="50" height="50" fill="white"/>
</clipPath>
</defs>
</svg>
