<svg width="301" height="57" viewBox="0 0 301 57" fill="none" xmlns="http://www.w3.org/2000/svg">
<g id="surface1">
<path style=" stroke:none;fill-rule:nonzero;fill:rgb(82%,169%,17%);fill-opacity:1;" d="M 11.8125 31.234375 C 11.644531 30.980469 11.476562 30.726562 11.257812 30.421875 C 10.84375 30.082031 10.476562 29.792969 10.113281 29.507812 C 10.101562 29.472656 10.078125 29.445312 9.996094 29.386719 C 9.054688 28.835938 8.160156 28.324219 7.269531 27.8125 C 7.214844 27.777344 7.164062 27.738281 7.054688 27.667969 C 5.855469 27.011719 4.890625 26.242188 4.664062 24.851562 C 4.695312 24.578125 4.730469 24.304688 4.78125 23.949219 C 5.050781 23.433594 5.304688 23.003906 5.558594 22.570312 C 5.699219 22.441406 5.84375 22.308594 6.035156 22.132812 C 6.445312 21.714844 6.808594 21.347656 7.167969 20.980469 C 7.53125 20.660156 7.890625 20.339844 8.304688 19.96875 C 8.679688 19.589844 9 19.257812 9.324219 18.929688 C 9.6875 18.609375 10.050781 18.285156 10.464844 17.914062 C 10.835938 17.535156 11.160156 17.207031 11.480469 16.878906 C 11.730469 16.671875 11.980469 16.460938 12.28125 16.203125 C 12.765625 15.710938 13.203125 15.269531 13.636719 14.824219 C 14.277344 14.238281 14.921875 13.660156 15.550781 13.058594 C 17.273438 11.414062 18.988281 9.757812 20.707031 8.109375 C 22.207031 6.671875 23.699219 5.222656 25.226562 3.808594 C 26.523438 2.609375 27.855469 1.441406 29.195312 0.28125 C 29.480469 0.03125 29.847656 -0.292969 30.253906 -0.00390625 C 30.6875 0.300781 30.71875 0.8125 30.617188 1.285156 C 30.210938 3.128906 29.789062 4.964844 29.363281 6.800781 C 28.257812 11.539062 27.09375 16.265625 26.066406 21.023438 C 25.691406 22.761719 26.191406 24.394531 27.40625 25.765625 C 28.441406 26.933594 29.871094 27.488281 31.140625 28.292969 C 31.976562 28.820312 32.921875 29.191406 33.523438 30.0625 C 34.28125 31.15625 33.996094 32.742188 33.199219 33.519531 C 31.074219 35.597656 28.933594 37.660156 26.792969 39.71875 C 25.539062 40.925781 24.265625 42.109375 23.003906 43.308594 C 21.28125 44.953125 19.5625 46.609375 17.839844 48.253906 C 16.40625 49.625 14.972656 51.003906 13.523438 52.359375 C 12.28125 53.519531 11.023438 54.664062 9.757812 55.796875 C 9.511719 56.015625 9.199219 56.207031 8.882812 56.292969 C 8.34375 56.441406 8.023438 56.191406 8.082031 55.605469 C 8.183594 54.558594 8.300781 53.503906 8.539062 52.484375 C 9.605469 47.910156 10.71875 43.351562 11.808594 38.785156 C 12.113281 37.503906 12.40625 36.21875 12.675781 34.925781 C 12.75 34.578125 12.707031 34.207031 12.71875 33.753906 C 12.679688 33.496094 12.644531 33.335938 12.605469 33.171875 C 12.605469 33.121094 12.601562 33.070312 12.59375 32.941406 C 12.332031 32.320312 12.070312 31.777344 11.8125 31.234375 Z M 11.8125 31.234375 "/>
<path style=" stroke:none;fill-rule:nonzero;fill:rgb(82%,169%,17%);fill-opacity:1;" d="M 80.511719 32.730469 C 79.980469 34.292969 79.5 35.828125 78.921875 37.324219 C 78.546875 38.304688 77.714844 38.699219 76.691406 38.636719 C 75.699219 38.582031 75.023438 38.035156 74.726562 37.105469 C 74.054688 35.003906 73.425781 32.886719 72.785156 30.773438 C 72.582031 30.105469 72.382812 29.4375 72.128906 28.59375 C 71.976562 28.929688 71.871094 29.113281 71.808594 29.308594 C 71.035156 31.699219 70.285156 34.101562 69.488281 36.484375 C 69.199219 37.34375 68.84375 38.171875 67.847656 38.515625 C 66.835938 38.867188 65.578125 38.5 65.144531 37.507812 C 64.707031 36.507812 64.378906 35.457031 64.058594 34.414062 C 63.4375 32.394531 62.859375 30.359375 62.261719 28.332031 C 61.847656 26.9375 61.425781 25.546875 61.03125 24.148438 C 60.863281 23.558594 61.011719 23.386719 61.625 23.375 C 62.097656 23.367188 62.570312 23.386719 63.042969 23.371094 C 63.53125 23.359375 63.804688 23.570312 63.941406 24.050781 C 64.644531 26.539062 65.367188 29.023438 66.085938 31.507812 C 66.382812 32.539062 66.695312 33.566406 67.128906 34.613281 C 67.292969 34.128906 67.46875 33.644531 67.625 33.15625 C 68.421875 30.613281 69.214844 28.070312 70.007812 25.527344 C 70.164062 25.023438 70.328125 24.519531 70.472656 24.011719 C 70.601562 23.570312 70.855469 23.347656 71.335938 23.371094 C 71.808594 23.394531 72.28125 23.390625 72.753906 23.371094 C 73.3125 23.347656 73.625 23.589844 73.777344 24.132812 C 74.769531 27.601562 75.773438 31.066406 76.777344 34.53125 C 76.785156 34.558594 76.824219 34.578125 76.917969 34.660156 C 77.082031 34.175781 77.246094 33.726562 77.386719 33.269531 C 78.21875 30.621094 79.046875 27.96875 79.875 25.320312 C 80.023438 24.851562 80.15625 24.378906 80.304688 23.910156 C 80.421875 23.546875 80.644531 23.347656 81.058594 23.367188 C 81.605469 23.394531 82.15625 23.359375 82.703125 23.382812 C 83.242188 23.402344 83.410156 23.621094 83.261719 24.09375 C 82.351562 26.957031 81.433594 29.820312 80.511719 32.730469 Z M 80.511719 32.730469 "/>
<path style=" stroke:none;fill-rule:nonzero;fill:rgb(82%,169%,17%);fill-opacity:1;" d="M 139.546875 27.25 C 138.675781 29.382812 137.804688 31.519531 136.9375 33.65625 C 136.644531 34.371094 136.367188 35.097656 136.066406 35.8125 C 135.628906 36.855469 134.746094 37.070312 133.742188 37.050781 C 132.796875 37.03125 132.136719 36.585938 131.785156 35.703125 C 131.308594 34.507812 130.835938 33.3125 130.359375 32.121094 C 129.6875 30.4375 129.011719 28.757812 128.230469 27.078125 C 128.21875 27.269531 128.199219 27.457031 128.199219 27.648438 C 128.195312 31.027344 128.195312 34.40625 128.195312 37.789062 C 128.195312 38.519531 128 38.722656 127.269531 38.761719 C 125.753906 38.835938 125.679688 38.765625 125.683594 37.257812 C 125.683594 33.230469 125.683594 29.207031 125.691406 25.179688 C 125.695312 24.042969 126.148438 23.609375 127.285156 23.601562 C 127.738281 23.597656 128.195312 23.601562 128.648438 23.601562 C 129.714844 23.605469 130.105469 23.851562 130.5 24.84375 C 131.367188 27.039062 132.21875 29.246094 133.082031 31.445312 C 133.335938 32.101562 133.613281 32.75 133.945312 33.558594 C 134.128906 33.238281 134.246094 33.082031 134.316406 32.902344 C 135.398438 30.160156 136.46875 27.414062 137.546875 24.671875 C 137.824219 23.964844 138.332031 23.585938 139.109375 23.601562 C 139.65625 23.609375 140.207031 23.589844 140.753906 23.605469 C 141.675781 23.636719 142.25 24.167969 142.261719 25.09375 C 142.3125 29.304688 142.34375 33.515625 142.367188 37.730469 C 142.371094 38.464844 142.0625 38.734375 141.308594 38.761719 C 139.800781 38.8125 139.761719 38.773438 139.761719 37.277344 C 139.761719 33.972656 139.761719 30.667969 139.757812 27.273438 C 139.714844 27.144531 139.667969 27.105469 139.625 27.066406 C 139.597656 27.128906 139.570312 27.1875 139.546875 27.25 Z M 139.546875 27.25 "/>
<path style=" stroke:none;fill-rule:nonzero;fill:rgb(82%,169%,17%);fill-opacity:1;" d="M 148.117188 24.085938 C 148.90625 23.910156 149.652344 23.65625 150.410156 23.625 C 151.976562 23.554688 153.550781 23.558594 155.117188 23.617188 C 156.085938 23.652344 157.058594 23.753906 157.898438 24.394531 C 158.742188 25.035156 159.207031 25.914062 159.273438 26.902344 C 159.425781 29.167969 159.503906 31.441406 159.496094 33.710938 C 159.496094 34.792969 159.355469 35.910156 158.796875 36.886719 C 158.113281 38.082031 156.996094 38.601562 155.683594 38.632812 C 153.792969 38.679688 151.898438 38.6875 150.007812 38.636719 C 147.671875 38.574219 146.535156 37.429688 146.296875 35.160156 C 146.046875 32.757812 146.089844 30.3125 146.167969 27.890625 C 146.210938 26.398438 146.65625 24.964844 148.117188 24.085938 M 156.058594 35.710938 C 156.742188 35.3125 156.761719 34.589844 156.777344 33.957031 C 156.835938 32.0625 156.832031 30.160156 156.785156 28.261719 C 156.753906 26.84375 156.171875 26.335938 154.769531 26.332031 C 153.445312 26.332031 152.121094 26.332031 150.800781 26.335938 C 149.449219 26.335938 148.894531 26.800781 148.867188 28.136719 C 148.820312 30.128906 148.796875 32.125 148.878906 34.113281 C 148.921875 35.183594 149.054688 35.945312 150.785156 35.917969 C 152.183594 35.898438 153.582031 35.925781 154.980469 35.90625 C 155.316406 35.902344 155.648438 35.804688 156.058594 35.710938 Z M 156.058594 35.710938 "/>
<path style=" stroke:none;fill-rule:nonzero;fill:rgb(82%,169%,17%);fill-opacity:1;" d="M 96.277344 38.648438 C 94.554688 38.648438 92.890625 38.644531 91.226562 38.648438 C 88.832031 38.652344 87.75 37.394531 87.328125 35.339844 C 87.234375 34.882812 87.207031 34.40625 87.207031 33.933594 C 87.195312 31.921875 87.132812 29.90625 87.238281 27.898438 C 87.285156 27.023438 87.617188 26.140625 87.953125 25.316406 C 88.324219 24.417969 89.121094 23.949219 90.066406 23.808594 C 92.542969 23.445312 95.035156 23.453125 97.503906 23.789062 C 99.25 24.027344 100.199219 25.390625 100.34375 27.023438 C 100.527344 29.09375 100.546875 31.179688 100.574219 33.261719 C 100.585938 34.007812 100.476562 34.769531 100.320312 35.503906 C 99.867188 37.660156 98.597656 38.636719 96.277344 38.648438 M 92.484375 26.332031 C 92.160156 26.332031 91.839844 26.320312 91.519531 26.335938 C 90.550781 26.382812 90.027344 26.875 89.933594 27.839844 C 89.875 28.40625 89.820312 28.972656 89.828125 29.539062 C 89.84375 31.128906 89.875 32.71875 89.929688 34.308594 C 89.96875 35.410156 90.515625 35.910156 91.625 35.914062 C 93.136719 35.917969 94.652344 35.917969 96.164062 35.914062 C 97.144531 35.910156 97.722656 35.449219 97.746094 34.453125 C 97.800781 32.300781 97.808594 30.144531 97.75 27.988281 C 97.714844 26.746094 97.191406 26.339844 95.941406 26.335938 C 94.824219 26.332031 93.710938 26.332031 92.484375 26.332031 Z M 92.484375 26.332031 "/>
<path style=" stroke:none;fill-rule:nonzero;fill:rgb(82%,169%,17%);fill-opacity:1;" d="M 205.910156 32.367188 C 204.457031 32.109375 203.980469 31.101562 203.828125 29.542969 C 203.730469 28.519531 203.730469 27.46875 203.828125 26.445312 C 203.984375 24.839844 204.832031 23.578125 206.707031 23.597656 C 209.183594 23.621094 211.664062 23.601562 214.140625 23.601562 C 214.8125 23.601562 215.027344 23.808594 215.042969 24.46875 C 215.050781 24.828125 215.050781 25.191406 215.042969 25.550781 C 215.03125 26.152344 214.863281 26.332031 214.261719 26.332031 C 212.179688 26.335938 210.097656 26.332031 208.019531 26.332031 C 206.527344 26.332031 206.527344 26.332031 206.527344 27.828125 C 206.527344 28.191406 206.527344 28.550781 206.527344 28.914062 C 206.527344 29.417969 206.730469 29.664062 207.28125 29.652344 C 208.890625 29.628906 210.5 29.65625 212.105469 29.640625 C 214.402344 29.621094 215.167969 30.738281 215.355469 32.664062 C 215.476562 33.878906 215.390625 35.128906 215.25 36.347656 C 215.089844 37.777344 213.984375 38.644531 212.539062 38.644531 C 209.890625 38.648438 207.242188 38.648438 204.59375 38.644531 C 203.902344 38.644531 203.8125 38.550781 203.808594 37.851562 C 203.804688 37.472656 203.804688 37.09375 203.808594 36.710938 C 203.8125 36.003906 203.894531 35.917969 204.585938 35.914062 C 206.96875 35.914062 209.355469 35.914062 211.738281 35.914062 C 212.449219 35.914062 212.667969 35.6875 212.664062 34.957031 C 212.664062 34.40625 212.667969 33.855469 212.664062 33.304688 C 212.660156 32.617188 212.433594 32.378906 211.75 32.378906 C 209.820312 32.371094 207.890625 32.371094 205.910156 32.367188 Z M 205.910156 32.367188 "/>
<path style=" stroke:none;fill-rule:nonzero;fill:rgb(82%,169%,17%);fill-opacity:1;" d="M 54.386719 27.9375 C 54.40625 26.734375 54.023438 26.335938 52.890625 26.335938 C 50.433594 26.332031 47.972656 26.335938 45.511719 26.332031 C 44.875 26.332031 44.75 26.207031 44.738281 25.574219 C 44.730469 25.15625 44.738281 24.738281 44.734375 24.320312 C 44.730469 23.859375 44.933594 23.601562 45.410156 23.601562 C 48.246094 23.601562 51.089844 23.527344 53.921875 23.632812 C 55.582031 23.695312 56.46875 24.273438 56.921875 26.113281 C 57.261719 27.484375 57.25 28.890625 56.847656 30.261719 C 56.386719 31.832031 55.292969 32.4375 53.734375 32.476562 C 51.863281 32.527344 49.988281 32.484375 48.117188 32.484375 C 47.929688 32.484375 47.742188 32.484375 47.496094 32.484375 C 47.484375 32.734375 47.464844 32.933594 47.464844 33.136719 C 47.464844 34.730469 47.449219 36.328125 47.472656 37.921875 C 47.480469 38.398438 47.28125 38.664062 46.851562 38.710938 C 46.367188 38.757812 45.871094 38.757812 45.382812 38.722656 C 44.992188 38.699219 44.828125 38.460938 44.832031 38.03125 C 44.851562 35.464844 44.847656 32.902344 44.835938 30.335938 C 44.832031 29.886719 45 29.742188 45.4375 29.746094 C 47.839844 29.761719 50.242188 29.734375 52.644531 29.761719 C 53.925781 29.777344 54.507812 29.4375 54.386719 27.9375 Z M 54.386719 27.9375 "/>
<path style=" stroke:none;fill-rule:nonzero;fill:rgb(82%,169%,17%);fill-opacity:1;" d="M 168.191406 28.796875 C 169.039062 30.90625 169.867188 32.976562 170.746094 35.160156 C 171.195312 34.039062 171.613281 33.015625 172.015625 31.988281 C 173.027344 29.417969 174.027344 26.847656 175.039062 24.277344 C 175.378906 23.417969 175.457031 23.378906 176.378906 23.378906 C 176.796875 23.378906 177.214844 23.351562 177.625 23.394531 C 178.179688 23.449219 178.324219 23.671875 178.121094 24.191406 C 177.34375 26.164062 176.546875 28.125 175.761719 30.089844 C 174.886719 32.285156 174.011719 34.480469 173.144531 36.679688 C 172.757812 37.65625 172.207031 38.457031 171.078125 38.644531 C 170.074219 38.808594 169.089844 38.277344 168.703125 37.328125 C 167.675781 34.808594 166.667969 32.277344 165.648438 29.753906 C 164.9375 28.003906 164.226562 26.25 163.5 24.507812 C 163.113281 23.582031 163.238281 23.375 164.261719 23.378906 C 166.316406 23.386719 165.929688 23.179688 166.691406 25.074219 C 167.183594 26.304688 167.679688 27.53125 168.191406 28.796875 Z M 168.191406 28.796875 "/>
<path style=" stroke:none;fill-rule:nonzero;fill:rgb(82%,169%,17%);fill-opacity:1;" d="M 199.9375 35.753906 C 199.945312 36.527344 199.925781 37.246094 199.953125 37.96875 C 199.96875 38.445312 199.730469 38.636719 199.3125 38.640625 C 196.929688 38.644531 194.539062 38.757812 192.167969 38.605469 C 190.128906 38.472656 189.136719 37.597656 188.757812 35.449219 C 188.496094 33.976562 188.613281 32.433594 188.605469 30.917969 C 188.601562 30.355469 189.242188 29.796875 189.8125 29.757812 C 190.039062 29.742188 190.265625 29.753906 190.492188 29.75 C 193.289062 29.71875 196.082031 29.679688 198.875 29.652344 C 199.769531 29.644531 199.832031 29.71875 199.832031 30.628906 C 199.832031 30.96875 199.816406 31.3125 199.835938 31.652344 C 199.875 32.195312 199.632812 32.390625 199.101562 32.390625 C 196.777344 32.375 194.449219 32.378906 192.125 32.386719 C 191.902344 32.386719 191.667969 32.40625 191.460938 32.472656 C 191.351562 32.507812 191.214844 32.675781 191.21875 32.78125 C 191.238281 33.304688 191.242188 33.84375 191.359375 34.351562 C 191.511719 35.015625 191.996094 35.335938 192.699219 35.339844 C 194.816406 35.347656 196.933594 35.332031 199.050781 35.363281 C 199.347656 35.367188 199.636719 35.585938 199.9375 35.753906 Z M 199.9375 35.753906 "/>
<path style=" stroke:none;fill-rule:nonzero;fill:rgb(82%,169%,17%);fill-opacity:1;" d="M 106.027344 37.992188 C 104.988281 37.253906 104.625 36.171875 104.484375 35.039062 C 104.351562 33.9375 104.359375 32.8125 104.351562 31.699219 C 104.332031 29.324219 104.34375 26.949219 104.34375 24.578125 C 104.34375 23.609375 104.355469 23.601562 105.34375 23.601562 C 105.644531 23.601562 105.949219 23.597656 106.25 23.601562 C 106.859375 23.609375 107.066406 23.808594 107.066406 24.421875 C 107.070312 26.265625 107.066406 28.105469 107.066406 29.949219 C 107.066406 31.296875 107.039062 32.644531 107.082031 33.992188 C 107.105469 34.679688 107.148438 35.429688 107.933594 35.769531 C 108.148438 35.863281 108.402344 35.90625 108.640625 35.90625 C 110.550781 35.917969 112.460938 35.914062 114.371094 35.914062 C 115.140625 35.917969 115.347656 36.128906 115.355469 36.886719 C 115.371094 38.980469 115.398438 38.632812 113.640625 38.644531 C 111.863281 38.660156 110.085938 38.644531 108.308594 38.648438 C 107.496094 38.648438 106.746094 38.453125 106.027344 37.992188 Z M 106.027344 37.992188 "/>
<path style=" stroke:none;fill-rule:nonzero;fill:rgb(82%,169%,17%);fill-opacity:1;" d="M 121.832031 32.035156 C 121.832031 33.988281 121.832031 35.886719 121.828125 37.789062 C 121.828125 38.511719 121.609375 38.746094 120.886719 38.757812 C 119.066406 38.789062 119.09375 38.792969 119.101562 37.0625 C 119.121094 32.882812 119.109375 28.707031 119.109375 24.527344 C 119.109375 23.734375 119.238281 23.605469 120.027344 23.601562 C 120.347656 23.601562 120.667969 23.597656 120.992188 23.601562 C 121.628906 23.609375 121.828125 23.804688 121.828125 24.457031 C 121.832031 26.964844 121.832031 29.46875 121.832031 32.035156 Z M 121.832031 32.035156 "/>
<path style=" stroke:none;fill-rule:nonzero;fill:rgb(82%,169%,17%);fill-opacity:1;" d="M 184.730469 33.058594 C 184.730469 34.675781 184.734375 36.230469 184.730469 37.789062 C 184.730469 38.511719 184.511719 38.746094 183.789062 38.757812 C 181.96875 38.789062 181.996094 38.789062 182.003906 37.058594 C 182.023438 32.882812 182.011719 28.707031 182.011719 24.527344 C 182.011719 23.734375 182.140625 23.605469 182.929688 23.601562 C 183.25 23.601562 183.570312 23.597656 183.894531 23.601562 C 184.53125 23.609375 184.730469 23.808594 184.730469 24.457031 C 184.734375 27.308594 184.730469 30.15625 184.730469 33.058594 Z M 184.730469 33.058594 "/>
<path style=" stroke:none;fill-rule:nonzero;fill:rgb(82%,169%,17%);fill-opacity:1;" d="M 194.609375 26.328125 C 192.832031 26.328125 191.109375 26.328125 189.390625 26.328125 C 188.628906 26.328125 188.480469 26.183594 188.480469 25.449219 C 188.472656 23.230469 188.367188 23.613281 190.328125 23.601562 C 193.257812 23.585938 196.191406 23.597656 199.125 23.597656 C 199.863281 23.597656 199.945312 23.679688 199.945312 24.40625 C 199.949219 24.824219 199.933594 25.246094 199.949219 25.660156 C 199.96875 26.15625 199.738281 26.339844 199.265625 26.335938 C 197.730469 26.324219 196.199219 26.328125 194.609375 26.328125 Z M 194.609375 26.328125 "/>
</g>
</svg>
